<?xml version="1.0" encoding="UTF-8"?>
<svg preserveAspectRatio="xMidYMid meet" data-bbox="0.003 -0.005 743.557 197.725" viewBox="0.003 -0.005 743.557 197.725" xmlns="http://www.w3.org/2000/svg" data-type="color" role="presentation" aria-hidden="true" aria-label="">
    <defs>
        <style></style>
    </defs>
    <g>
        <path d="M91.34 100.88c.51.76.92 1.34 1.3 1.94l22.5 35.64c1.57 2.48 2.47 2.47 4.08-.07 19.39-30.71 38.79-61.41 58.11-92.16 1.47-2.34 3.13-3.39 5.94-3.34 8.42.15 16.85.03 25.27.09.85 0 2.26.26 2.43.74.26.73-.13 1.9-.61 2.66-30.4 48.12-60.85 96.21-91.28 144.31-1.57 2.48-2.37 2.48-3.93.01-13.07-20.66-26.14-41.33-39.25-61.97-.79-1.24-.85-2.09-.03-3.36 4.82-7.54 9.54-15.14 14.3-22.71.34-.54.7-1.07 1.18-1.78Z" fill="#ffffff" data-color="1"></path>
        <path d="M119.93 91.64c-5.42-8.58-10.69-16.93-15.96-25.27-2.65-4.2-5.29-8.41-7.96-12.61-1.32-2.08-2.32-2.08-3.64 0-3.3 5.2-6.58 10.42-9.87 15.63-.35.55-.73 1.08-1.11 1.63-7.73-5.4-16.03-9.4-25.15-12.22 2.38-3.77 4.7-7.45 7.03-11.13 9.63-15.23 19.27-30.46 28.9-45.68 1.68-2.66 2.47-2.66 4.16 0 13.07 20.65 26.15 41.31 39.22 61.96.53.84 1.02 1.5.29 2.64-5.13 8.04-10.17 16.14-15.24 24.22-.13.21-.32.39-.66.81Z" fill="#ffffff" data-color="1"></path>
        <path d="M46.98 125.64c-2.86 4.54-5.66 8.96-8.44 13.38-1.94 3.09-3.82 6.22-5.86 9.23-.42.62-1.44 1.18-2.19 1.18-9.42.08-18.84.06-28.26.04-2.27 0-2.8-.92-1.61-2.81 4.69-7.46 9.4-14.91 14.17-22.33.34-.53 1.23-1.07 1.83-1.03 9.93.61 19.85 1.32 29.77 2.01.11 0 .22.11.59.32Z" fill="#ffffff" data-color="1"></path>
        <path d="M63.78 99.02c-3.84 6.08-7.58 12.01-11.1 17.59-10.73-.66-21.2-1.31-31.67-1.95.05-.11.23-.59.49-1.01 4.35-6.88 8.69-13.77 13.1-20.61.37-.58 1.37-1.24 1.92-1.13 8.79 1.82 17.79 2.87 26.11 6.56.3.13.58.28 1.14.55Z" fill="#ffffff" data-color="1"></path>
        <path d="M76.16 79.43c-2.51 3.96-4.9 7.76-7.38 11.68-8.97-4.32-18.67-5.16-28.46-7.16l11.16-17.66c8.72 3.46 17.39 6.73 24.69 13.14Z" fill="#ffffff" data-color="1"></path>
        <path d="M256.83 6.38h20.02l32.39 89.26h-18.68l-5.36-14.79h-36.72l-5.36 14.79h-18.68l32.39-89.26Zm-1.91 56.87h23.85l-11.99-32.71-11.86 32.71Z" fill="#ffffff" data-color="1"></path>
        <path d="M352.34 49.48h-11.48v46.16h-17.6V49.48h-8.8v-17.6h8.8V11.86h17.6v20.02h11.48v17.6Z" fill="#ffffff" data-color="1"></path>
        <path d="M363.81 95.64V0h17.6v95.64h-17.6Z" fill="#ffffff" data-color="1"></path>
        <path d="M442.37 31.88h17.6v63.76h-17.66l-.83-6.63c-1.66 2.47-3.78 4.46-6.38 5.99-2.59 1.53-5.63 2.3-9.12 2.3-4.76 0-9.2-.89-13.32-2.68a34.674 34.674 0 0 1-10.9-7.4c-3.15-3.15-5.6-6.79-7.36-10.94-1.76-4.14-2.65-8.6-2.65-13.36s.83-8.8 2.49-12.75 4-7.44 7.01-10.46c3.02-3.02 6.49-5.38 10.43-7.08 3.93-1.7 8.17-2.55 12.72-2.55 3.91 0 7.43.83 10.55 2.49s5.86 3.76 8.19 6.31l-.77-7.01ZM425.54 80.4c2.89 0 5.5-.74 7.84-2.23s4.19-3.5 5.55-6.03c1.36-2.53 2.04-5.32 2.04-8.38s-.68-5.91-2.04-8.42c-1.36-2.51-3.21-4.51-5.55-5.99-2.34-1.49-4.95-2.23-7.84-2.23s-5.59.74-7.97 2.23-4.27 3.5-5.68 6.03-2.1 5.32-2.1 8.38.71 5.86 2.14 8.38c1.42 2.53 3.32 4.54 5.71 6.03 2.38 1.49 5.01 2.23 7.91 2.23Z" fill="#ffffff" data-color="1"></path>
        <path d="M531.95 55.09v40.55h-17.6v-35.7c0-2.25-.54-4.28-1.63-6.09a12.084 12.084 0 0 0-4.34-4.3c-1.81-1.06-3.82-1.59-6.02-1.59s-4.23.53-6.06 1.59a11.93 11.93 0 0 0-4.34 4.3c-1.06 1.81-1.59 3.84-1.59 6.09v35.7h-17.6l-.06-63.76h17.6l.06 4.72c2.12-2.04 4.62-3.63 7.49-4.78 2.87-1.15 5.9-1.72 9.09-1.72 4.63 0 8.83 1.13 12.59 3.38a25.8 25.8 0 0 1 9.02 9.02c2.25 3.76 3.38 7.96 3.38 12.59Z" fill="#ffffff" data-color="1"></path>
        <path d="M579.38 49.48H567.9v46.16h-17.6V49.48h-8.8v-17.6h8.8V11.86h17.6v20.02h11.48v17.6Z" fill="#ffffff" data-color="1"></path>
        <path d="M598.64 24.55c-2.55 0-4.7-.85-6.44-2.55-1.74-1.7-2.62-3.8-2.62-6.31s.87-4.61 2.62-6.31c1.74-1.7 3.87-2.55 6.38-2.55s4.62.85 6.34 2.55c1.72 1.7 2.58 3.81 2.58 6.31s-.84 4.61-2.52 6.31c-1.68 1.7-3.79 2.55-6.34 2.55Zm-8.93 7.33h17.6v63.76h-17.6V31.88Z" fill="#ffffff" data-color="1"></path>
        <path d="m658.64 75.49 15.81 8.54c-2.93 4-6.61 7.2-11.03 9.63-4.42 2.42-9.25 3.63-14.47 3.63-5.87 0-11.21-1.51-16.04-4.53-4.82-3.02-8.67-7.07-11.54-12.15-2.87-5.08-4.3-10.7-4.3-16.86 0-4.68.83-9.04 2.49-13.1 1.66-4.06 3.94-7.63 6.85-10.71 2.91-3.08 6.3-5.49 10.17-7.24 3.87-1.74 7.99-2.61 12.37-2.61 5.23 0 10.05 1.21 14.47 3.63s8.1 5.67 11.03 9.75l-15.81 8.54c-1.32-1.4-2.82-2.48-4.5-3.22-1.68-.74-3.41-1.12-5.2-1.12-2.72 0-5.16.74-7.3 2.23-2.15 1.49-3.85 3.45-5.1 5.9-1.25 2.44-1.88 5.09-1.88 7.94s.64 5.42 1.91 7.84c1.28 2.42 2.99 4.38 5.13 5.87 2.14 1.49 4.56 2.23 7.24 2.23 1.83 0 3.57-.38 5.23-1.15s3.15-1.78 4.46-3.06Z" fill="#ffffff" data-color="1"></path>
        <path d="M711.69 97.3c-5.87 0-11.21-1.51-16.04-4.53-4.82-3.02-8.67-7.07-11.54-12.15-2.87-5.08-4.3-10.7-4.3-16.86 0-4.68.83-9.04 2.49-13.1 1.66-4.06 3.94-7.63 6.85-10.71 2.91-3.08 6.3-5.49 10.17-7.24 3.87-1.74 7.99-2.61 12.37-2.61 5.87 0 11.21 1.51 16.03 4.53s8.67 7.08 11.54 12.18c2.87 5.1 4.3 10.75 4.3 16.96 0 4.63-.83 8.97-2.49 13.01-1.66 4.04-3.94 7.6-6.85 10.68a32.078 32.078 0 0 1-10.14 7.24c-3.85 1.74-7.98 2.61-12.4 2.61Zm0-17.6c2.72 0 5.16-.73 7.33-2.2s3.87-3.41 5.1-5.83c1.23-2.42 1.85-5.06 1.85-7.91s-.65-5.62-1.95-8.07c-1.3-2.44-3.03-4.39-5.2-5.83-2.17-1.44-4.55-2.17-7.14-2.17s-5.1.74-7.27 2.23-3.88 3.44-5.13 5.87c-1.25 2.42-1.88 5.08-1.88 7.97s.65 5.73 1.94 8.13c1.3 2.4 3.03 4.3 5.2 5.71 2.17 1.4 4.55 2.1 7.14 2.1Z" fill="#ffffff" data-color="1"></path>
        <path d="M256.83 106.8h20.02l32.39 89.26h-18.68l-5.36-14.79h-36.72l-5.36 14.79h-18.68l32.39-89.26Zm-1.91 56.87h23.85l-11.99-32.71-11.86 32.71Z" fill="#ffffff" data-color="1"></path>
        <path d="M347.49 196.06h-22.76l-23.21-63.76h18.75l15.81 43.55 15.81-43.55h18.81l-23.21 63.76Z" fill="#ffffff" data-color="1"></path>
        <path d="M422.12 132.3h17.6v63.76h-17.66l-.83-6.63c-1.66 2.47-3.78 4.46-6.38 5.99-2.59 1.53-5.63 2.3-9.12 2.3-4.76 0-9.2-.89-13.33-2.68-4.12-1.79-7.76-4.25-10.9-7.4-3.15-3.14-5.6-6.79-7.36-10.93-1.76-4.15-2.65-8.6-2.65-13.36s.83-8.8 2.49-12.75c1.66-3.95 4-7.44 7.01-10.46 3.02-3.02 6.49-5.38 10.42-7.08 3.93-1.7 8.17-2.55 12.72-2.55 3.91 0 7.43.83 10.55 2.49 3.12 1.66 5.85 3.76 8.19 6.31l-.76-7.01Zm-16.83 48.52c2.89 0 5.5-.74 7.84-2.23s4.19-3.5 5.55-6.03c1.36-2.53 2.04-5.32 2.04-8.38s-.68-5.91-2.04-8.42c-1.36-2.51-3.21-4.5-5.55-5.99-2.34-1.49-4.95-2.23-7.84-2.23s-5.59.75-7.97 2.23c-2.38 1.49-4.27 3.5-5.67 6.03s-2.1 5.32-2.1 8.38.71 5.86 2.14 8.38c1.42 2.53 3.33 4.54 5.71 6.03 2.38 1.49 5.02 2.23 7.91 2.23Z" fill="#ffffff" data-color="1"></path>
        <path d="M511.7 155.51v40.55h-17.6v-35.71c0-2.25-.54-4.28-1.63-6.09s-2.53-3.24-4.34-4.3c-1.81-1.06-3.82-1.59-6.03-1.59s-4.23.53-6.06 1.59a11.93 11.93 0 0 0-4.34 4.3c-1.06 1.81-1.59 3.84-1.59 6.09v35.71h-17.6l-.06-63.76h17.6l.06 4.72c2.12-2.04 4.62-3.63 7.49-4.78 2.87-1.15 5.9-1.72 9.08-1.72 4.63 0 8.83 1.13 12.59 3.38a25.8 25.8 0 0 1 9.02 9.02c2.25 3.76 3.38 7.96 3.38 12.59Z" fill="#ffffff" data-color="1"></path>
        <path d="M558.14 149.9h-11.48v46.16h-17.6V149.9h-8.8v-17.6h8.8v-20.02h17.6v20.02h11.48v17.6Z" fill="#ffffff" data-color="1"></path>
        <path d="M576.4 124.97c-2.55 0-4.7-.85-6.44-2.55-1.74-1.7-2.62-3.8-2.62-6.31s.87-4.61 2.62-6.31c1.74-1.7 3.87-2.55 6.38-2.55s4.62.85 6.34 2.55c1.72 1.7 2.58 3.81 2.58 6.31s-.84 4.61-2.52 6.31c-1.68 1.7-3.79 2.55-6.34 2.55Zm-8.93 7.33h17.6v63.76h-17.6V132.3Z" fill="#ffffff" data-color="1"></path>
        <path fill="#ffffff" d="m425.79 1.77 22.77 21.88h-15.82l-6.95-7.28-7.44 7.28h-14.19l21.63-21.88z" data-color="1"></path>
    </g>
</svg>